<?xml version="1.0" encoding="utf-8"?>
<svg version="1.2" baseProfile="tiny" xmlns="http://www.w3.org/2000/svg" xmlns:xlink="http://www.w3.org/1999/xlink"
	 x="0px" y="0px" width="100px" height="100px" viewBox="0 0 100 100" xml:space="preserve">
<g>
	<path fill="#333333" d="M50.001,16.527c2.339,0,4.528,0.633,6.169,1.781L95.279,45.68c1.633,1.147,2.542,2.681,2.542,4.32
		c0,1.634-0.909,3.171-2.542,4.315l-39.108,27.38c-1.642,1.145-3.83,1.773-6.169,1.773c-2.341,0-4.532-0.629-6.169-1.773
		L4.726,54.315C3.085,53.171,2.184,51.634,2.184,50c0-1.639,0.902-3.172,2.542-4.32l39.107-27.373
		C45.47,17.16,47.661,16.527,50.001,16.527 M50.001,15c-2.795,0-5.589,0.743-7.713,2.228L3.182,44.6
		c-4.242,2.969-4.242,7.828,0,10.795L42.288,82.77c2.124,1.483,4.918,2.231,7.713,2.231c2.798,0,5.589-0.748,7.71-2.231
		l39.103-27.374c4.248-2.968,4.248-7.826,0-10.795L57.712,17.227C55.591,15.743,52.8,15,50.001,15L50.001,15z"/>
	<path fill="#CCCCCC" d="M24.655,31.723c0.837,3.438,2,7.909,3.329,12.193c-9.715,2.414-14.014,3.924-14.311,4.41
		s-0.14,0.873,1.093,1.117C16,49.687,24.835,47.85,28.97,46.956c1.517,4.454,3.188,8.348,4.819,10.167
		c1.97,2.191,5.138,5.344,9.111,8.355c-15.106,4.288-30.867,7.748-31.633,8.197c-0.766,0.448,1.355,4.4,4.201,4.455
		c2.846,0.059,27.371-4.382,37.474-6.649c4.108,1.794,8.582,2.924,13.199,2.753c14.34-0.562,20.709-9.909,17.093-14.762
		c-0.391-0.525-0.849-1.037-1.343-1.544c6.952-7.313,13.434-15.078,13.367-16.066c-0.067-0.989-5.591-1.37-6.641-1.179
		c-1.057,0.19-6.04,6.067-14.105,11.65c-2.075-1.251-3.644-2.025-3.644-2.025s-3.553-9.544-9.161-8.375
		c-5.622,1.166-21.264,7.787-24.447,4.18c-0.233-0.263-0.483-0.595-0.741-0.974c8.293-2.214,12.754-3.678,12.649-4.158
		c-0.105-0.48-0.936-0.766-1.708-0.967c-0.772-0.202-8.93,1.549-12.633,2.332c-2.223-4.056-4.787-9.893-6.268-13.35L24.655,31.723z
		 M61.242,44.778c6.715-2.582,8.71,5.727,8.71,5.727c-8.008,1.903-10.784,6.526-10.784,6.526
		C58.512,55.585,54.529,47.357,61.242,44.778z"/>
</g>
</svg>
